<?xml version="1.0"?>
<svg xmlns="http://www.w3.org/2000/svg" xmlns:xlink="http://www.w3.org/1999/xlink" version="1.1" viewBox="0 0 200 200" alt="Beatport Logo">
  <style>
    svg {
      background-color: #1b1b1b;
      fill: #94d500;
    }
  </style>
  <g >
      <g>
        <path d="M172.6,99.6 C172.6,59.6 140,27 100,27 C60,27 27.4,59.6 27.4,99.6           C27.4,118.1 34.4,135.8 47.1,149.3 L47.1,149.3 C48.8,151.1 51.6,151.2           53.5,149.5 L61.3,142.1 C63.1,140.4 63.2,137.6 61.5,135.8 L61.5,135.8           C52.3,126 47.2,113.1 47.2,99.7 C47.2,70.6 70.9,46.9 100,46.9 C129.1,46.9           152.8,70.6 152.8,99.7 C152.8,113.2 147.7,126 138.5,135.8 L138.5,135.8           C136.8,137.6 136.9,140.4 138.7,142.1 L146.5,149.5 C148.3,151.2 151.2,151.1           152.9,149.3 L152.9,149.3 C165.6,135.7 172.6,118.1 172.6,99.6">
        </path>
        <g>
          <path d="M200,99.2 C200,89.3 198.5,79.6 195.6,70.2 L195.6,70.2 L195.6,70.2             C194.8,67.9 192.3,66.6 190,67.3 L179.7,70.5 C177.3,71.2 176,73.7             176.7,76.1 L176.7,76.1 C179,83.6 180.2,91.3 180.2,99.2 C180.2,113.2             176.4,126.8 169.3,138.8 L169.3,138.8 C168,140.9 168.7,143.7 170.9,144.9             L180.1,150.4 C182.2,151.7 185,151 186.3,148.9 C195.3,134             200,116.8 200,99.2"></path>
          <path d="M30.7,138.8 C23.6,126.9 19.8,113.2 19.8,99.2 C19.8,91.3 21,83.5             23.3,76.1 L23.3,76.1 C24,73.7 22.7,71.2 20.3,70.5 L10,67.3 C7.6,66.6             5.1,67.9 4.4,70.2 L4.4,70.2 C1.5,79.6 0,89.3 0,99.2 C0,116.8 4.8,134             13.7,149 L13.7,149 C15,151.1 17.7,151.8 19.9,150.5 L29.1,145 C31.2,143.7             31.9,140.9 30.7,138.8 L30.7,138.8 L30.7,138.8 Z"></path>
        </g>
      </g>
    </g>
</svg>